<svg width="40" height="40" viewBox="0 0 40 40" fill="none" xmlns="http://www.w3.org/2000/svg">
<path d="M8.889 9.11108H26.6668V10.8889H8.889V9.11108ZM8.889 18H17.8734V19.7778H8.889V18ZM25.9757 13.5555H8.889V15.3333H24.199L25.9757 13.5555ZM14.2146 32.3022C14.5134 32.6449 14.8927 32.908 15.3184 33.0678C15.7441 33.2276 16.2029 33.2791 16.6534 33.2178H25.3234C25.5297 33.2178 25.7276 33.1358 25.8734 32.9899C26.0193 32.8441 26.1012 32.6463 26.1012 32.44C26.1012 32.2337 26.0193 32.0359 25.8734 31.89C25.7276 31.7441 25.5297 31.6622 25.3234 31.6622H16.6534C15.6412 31.6444 15.8212 30.7655 15.9634 30.4933C16.1489 30.1738 16.2933 29.8322 16.3934 29.4766C16.4599 29.1905 16.4286 28.8904 16.3045 28.6242C16.1805 28.3579 15.9708 28.1409 15.709 28.0078C15.2884 27.8183 14.8173 27.7718 14.3678 27.8756C13.9182 27.9793 13.5151 28.2275 13.2201 28.5822C12.8379 28.9766 12.3068 29.58 11.7979 30.1666C12.1123 28.9344 12.5201 27.3533 12.9201 25.8111C13.0347 25.4597 13.0119 25.0779 12.8562 24.7426C12.7006 24.4074 12.4236 24.1436 12.0812 24.0044C11.702 23.8743 11.2876 23.8929 10.9215 24.0564C10.5555 24.22 10.2651 24.5163 10.109 24.8855C9.62899 25.8089 5.82899 32.1766 5.79122 32.2411C5.73883 32.3288 5.70424 32.4259 5.6894 32.527C5.67456 32.6281 5.67978 32.7311 5.70475 32.8301C5.72972 32.9292 5.77395 33.0223 5.83492 33.1043C5.89589 33.1862 5.97241 33.2554 6.06011 33.3078C6.23721 33.4135 6.44909 33.4446 6.64913 33.3942C6.84917 33.3438 7.02098 33.216 7.12677 33.0389C7.269 32.8 10.3023 27.7189 11.259 26.0222C10.539 28.8 9.74566 31.8911 9.699 32.1689C9.64646 32.3731 9.66223 32.5889 9.74389 32.7833C9.82555 32.9777 9.96861 33.1401 10.1512 33.2455C10.3546 33.3464 10.5858 33.3767 10.8083 33.3316C11.0308 33.2866 11.232 33.1687 11.3801 32.9966C11.5201 32.87 11.7823 32.5689 12.4434 31.8011C13.0594 31.0766 13.6903 30.365 14.3357 29.6666C14.5779 29.4111 14.7246 29.5244 14.5823 29.7755C14.3041 30.1271 14.1237 30.5459 14.0593 30.9896C13.9949 31.4332 14.0489 31.8861 14.2157 32.3022H14.2146Z" fill="white"/>
<path d="M31.1111 24.1055V35.5555H4.44439V4.44439H31.1111V9.99217L32.5888 8.51439C32.8163 8.29002 33.0657 8.08902 33.3333 7.91439V3.33328C33.3333 3.03859 33.2162 2.75598 33.0078 2.5476C32.7995 2.33923 32.5169 2.22217 32.2222 2.22217H3.33328C3.03859 2.22217 2.75598 2.33923 2.5476 2.5476C2.33923 2.75598 2.22217 3.03859 2.22217 3.33328V36.6666C2.22217 36.9613 2.33923 37.2439 2.5476 37.4523C2.75598 37.6607 3.03859 37.7777 3.33328 37.7777H32.2222C32.5169 37.7777 32.7995 37.6607 33.0078 37.4523C33.2162 37.2439 33.3333 36.9613 33.3333 36.6666V23.8077C32.6518 24.1689 31.8636 24.2745 31.1111 24.1055V24.1055Z" fill="white"/>
<path d="M37.9198 13.1789L37.3387 12.5978C37.6357 12.2053 37.7861 11.7213 37.7638 11.2296C37.7414 10.7379 37.5478 10.2695 37.2165 9.90557C36.7864 9.5265 36.224 9.33272 35.6517 9.36644C35.0794 9.40015 34.5436 9.65863 34.161 10.0856L20.2443 24L19.3143 27.4911C19.2996 27.5368 19.2978 27.5857 19.3091 27.6323C19.3205 27.6789 19.3445 27.7215 19.3785 27.7553C19.4126 27.7892 19.4553 27.8129 19.502 27.8239C19.5488 27.8349 19.5976 27.8328 19.6432 27.8178L23.1221 26.8767L36.1132 13.8856L36.6621 14.4356C36.7004 14.4739 36.7308 14.5193 36.7516 14.5694C36.7723 14.6194 36.783 14.6731 36.783 14.7272C36.783 14.7814 36.7723 14.8351 36.7516 14.8851C36.7308 14.9352 36.7004 14.9806 36.6621 15.0189L31.1987 20.4822C31.0321 20.649 30.9385 20.8752 30.9386 21.111C30.9387 21.3467 31.0325 21.5728 31.1993 21.7395C31.3661 21.9061 31.5922 21.9997 31.828 21.9996C32.0638 21.9995 32.2899 21.9057 32.4565 21.7389L37.9198 16.2756C38.3305 15.8647 38.5611 15.3076 38.5611 14.7267C38.5611 14.1458 38.3305 13.5887 37.9198 13.1778V13.1789Z" fill="white"/>
</svg>
