<svg width="40" height="40" viewBox="0 0 40 40" fill="none" xmlns="http://www.w3.org/2000/svg">
<path d="M26.875 10.3125C26.875 10.1406 26.7344 10 26.5625 10H11.5625C11.3906 10 11.25 10.1406 11.25 10.3125V12.1875C11.25 12.3594 11.3906 12.5 11.5625 12.5H26.5625C26.7344 12.5 26.875 12.3594 26.875 12.1875V10.3125ZM26.5625 15.625H11.5625C11.3906 15.625 11.25 15.7656 11.25 15.9375V17.8125C11.25 17.9844 11.3906 18.125 11.5625 18.125H26.5625C26.7344 18.125 26.875 17.9844 26.875 17.8125V15.9375C26.875 15.7656 26.7344 15.625 26.5625 15.625ZM18.75 21.25H11.5625C11.3906 21.25 11.25 21.3906 11.25 21.5625V23.4375C11.25 23.6094 11.3906 23.75 11.5625 23.75H18.75C18.9219 23.75 19.0625 23.6094 19.0625 23.4375V21.5625C19.0625 21.3906 18.9219 21.25 18.75 21.25ZM16.875 33.2812H8.125V5.78125H30V19.2188C30 19.3906 30.1406 19.5312 30.3125 19.5312H32.5C32.6719 19.5312 32.8125 19.3906 32.8125 19.2188V4.21875C32.8125 3.52734 32.2539 2.96875 31.5625 2.96875H6.5625C5.87109 2.96875 5.3125 3.52734 5.3125 4.21875V34.8438C5.3125 35.5352 5.87109 36.0938 6.5625 36.0938H16.875C17.0469 36.0938 17.1875 35.9531 17.1875 35.7812V33.5938C17.1875 33.4219 17.0469 33.2812 16.875 33.2812ZM30.8125 30.375C31.9453 29.3477 32.6562 27.8633 32.6562 26.2109C32.6562 23.1055 30.1367 20.5859 27.0312 20.5859C23.9258 20.5859 21.4062 23.1055 21.4062 26.2109C21.4062 27.8633 22.1172 29.3477 23.25 30.375C21.0234 31.6445 19.4922 33.9961 19.375 36.707C19.3672 36.8828 19.5117 37.0312 19.6875 37.0312H21.5664C21.7305 37.0312 21.8672 36.9023 21.8789 36.7344C22.0312 34.0313 24.2852 31.875 27.0312 31.875C29.7773 31.875 32.0313 34.0313 32.1836 36.7344C32.1914 36.8984 32.3281 37.0312 32.4961 37.0312H34.375C34.5547 37.0312 34.6953 36.8828 34.6875 36.707C34.5742 33.9922 33.0391 31.6445 30.8125 30.375ZM27.0312 23.0859C28.7578 23.0859 30.1562 24.4844 30.1562 26.2109C30.1562 27.9375 28.7578 29.3359 27.0312 29.3359C25.3047 29.3359 23.9062 27.9375 23.9062 26.2109C23.9062 24.4844 25.3047 23.0859 27.0312 23.0859Z" fill="white"/>
</svg>
